<mxfile host="app.diagrams.net" agent="Mozilla/5.0 (Windows NT 10.0; Win64; x64) AppleWebKit/537.36 (KHTML, like Gecko) Chrome/136.0.0.0 Safari/537.36" version="27.0.6">
  <diagram name="Merch Website Outline" id="zbxiylmX3rfXPnUeQlc6">
    <mxGraphModel dx="1426" dy="751" grid="1" gridSize="10" guides="1" tooltips="1" connect="1" arrows="1" fold="1" page="1" pageScale="1" pageWidth="827" pageHeight="1169" math="0" shadow="0">
      <root>
        <mxCell id="0" />
        <mxCell id="1" parent="0" />
        <mxCell id="Yi4gAEJp29Y8d3OYS0KE-51" value="Home Page" style="shape=swimlane;whiteSpace=wrap;fillColor=none;fontColor=default;" vertex="1" parent="1">
          <mxGeometry x="20" y="20" width="400" height="400" as="geometry" />
        </mxCell>
        <mxCell id="Yi4gAEJp29Y8d3OYS0KE-53" value="Hero Banner: Featured Band or Promo" style="shape=rectangle;whiteSpace=wrap;fillColor=none;" vertex="1" parent="Yi4gAEJp29Y8d3OYS0KE-51">
          <mxGeometry y="50" width="400" height="80" as="geometry" />
        </mxCell>
        <mxCell id="Yi4gAEJp29Y8d3OYS0KE-54" value="Band Grid (Thumbnails + Names)" style="shape=rectangle;whiteSpace=wrap;fillColor=#ffffff;" vertex="1" parent="Yi4gAEJp29Y8d3OYS0KE-51">
          <mxGeometry x="10" y="150" width="380" height="170" as="geometry" />
        </mxCell>
        <mxCell id="Yi4gAEJp29Y8d3OYS0KE-55" value="Footer: Contact | Socials | Legal" style="shape=rectangle;whiteSpace=wrap;fillColor=none;" vertex="1" parent="Yi4gAEJp29Y8d3OYS0KE-51">
          <mxGeometry y="330" width="400" height="40" as="geometry" />
        </mxCell>
        <mxCell id="Yi4gAEJp29Y8d3OYS0KE-52" value="Navigation: Home | Bands | Cart | Login" style="shape=rectangle;whiteSpace=wrap;fillColor=#e1e1e1;" vertex="1" parent="Yi4gAEJp29Y8d3OYS0KE-51">
          <mxGeometry width="400" height="40" as="geometry" />
        </mxCell>
        <mxCell id="Yi4gAEJp29Y8d3OYS0KE-56" value="Band Page" style="shape=swimlane;whiteSpace=wrap;fillColor=none;" vertex="1" parent="1">
          <mxGeometry x="450" y="20" width="400" height="400" as="geometry" />
        </mxCell>
        <mxCell id="Yi4gAEJp29Y8d3OYS0KE-58" value="Band Info + Image" style="shape=rectangle;whiteSpace=wrap;fillColor=#f5f5f5;" vertex="1" parent="Yi4gAEJp29Y8d3OYS0KE-56">
          <mxGeometry x="10" y="50" width="380" height="80" as="geometry" />
        </mxCell>
        <mxCell id="Yi4gAEJp29Y8d3OYS0KE-59" value="Filter: Category / Price / Size" style="shape=rectangle;whiteSpace=wrap;fillColor=none;" vertex="1" parent="Yi4gAEJp29Y8d3OYS0KE-56">
          <mxGeometry y="140" width="400" height="40" as="geometry" />
        </mxCell>
        <mxCell id="Yi4gAEJp29Y8d3OYS0KE-60" value="Merch Items Grid" style="shape=rectangle;whiteSpace=wrap;fillColor=#ffffff;" vertex="1" parent="Yi4gAEJp29Y8d3OYS0KE-56">
          <mxGeometry y="190" width="400" height="140" as="geometry" />
        </mxCell>
        <mxCell id="Yi4gAEJp29Y8d3OYS0KE-61" value="Footer: Band Links | Newsletter" style="shape=rectangle;whiteSpace=wrap;fillColor=none;" vertex="1" parent="Yi4gAEJp29Y8d3OYS0KE-56">
          <mxGeometry y="340" width="400" height="40" as="geometry" />
        </mxCell>
        <mxCell id="Yi4gAEJp29Y8d3OYS0KE-57" value="Navigation: Home | Bands | Cart | Login" style="shape=rectangle;whiteSpace=wrap;fillColor=#e1e1e1;" vertex="1" parent="Yi4gAEJp29Y8d3OYS0KE-56">
          <mxGeometry width="400" height="40" as="geometry" />
        </mxCell>
        <mxCell id="Yi4gAEJp29Y8d3OYS0KE-62" value="Product Page" style="shape=swimlane;whiteSpace=wrap;fillColor=none;" vertex="1" parent="1">
          <mxGeometry x="880" y="20" width="400" height="400" as="geometry" />
        </mxCell>
        <mxCell id="Yi4gAEJp29Y8d3OYS0KE-64" value="" style="shape=rectangle;whiteSpace=wrap;fillColor=#ffffff;" vertex="1" parent="Yi4gAEJp29Y8d3OYS0KE-62">
          <mxGeometry x="10" y="50" width="380" height="200" as="geometry" />
        </mxCell>
        <mxCell id="Yi4gAEJp29Y8d3OYS0KE-65" value="Size Dropdown | Qty | Add to Cart Button" style="shape=rectangle;whiteSpace=wrap;fillColor=none;" vertex="1" parent="Yi4gAEJp29Y8d3OYS0KE-62">
          <mxGeometry x="10" y="250" width="380" height="40" as="geometry" />
        </mxCell>
        <mxCell id="Yi4gAEJp29Y8d3OYS0KE-66" value="Footer: Support | Returns" style="shape=rectangle;whiteSpace=wrap;fillColor=none;" vertex="1" parent="Yi4gAEJp29Y8d3OYS0KE-62">
          <mxGeometry y="310" width="400" height="40" as="geometry" />
        </mxCell>
        <mxCell id="Yi4gAEJp29Y8d3OYS0KE-63" value="Navigation: Home | Bands | Cart | Login" style="shape=rectangle;whiteSpace=wrap;fillColor=#e1e1e1;" vertex="1" parent="Yi4gAEJp29Y8d3OYS0KE-62">
          <mxGeometry width="400" height="40" as="geometry" />
        </mxCell>
        <mxCell id="Yi4gAEJp29Y8d3OYS0KE-78" value="Product Image" style="rounded=0;whiteSpace=wrap;html=1;" vertex="1" parent="Yi4gAEJp29Y8d3OYS0KE-62">
          <mxGeometry x="30" y="70" width="120" height="120" as="geometry" />
        </mxCell>
        <mxCell id="Yi4gAEJp29Y8d3OYS0KE-80" value="&lt;h1 style=&quot;margin-top: 0px;&quot;&gt;&lt;font style=&quot;font-size: 21px;&quot;&gt;title price&lt;/font&gt;&lt;/h1&gt;&lt;p&gt;Lorem ipsum dolor sit amet, consectetur adipisicing elit, sed do eiusmod tempor incididunt ut labore et dolore magna aliqua.&lt;/p&gt;" style="text;html=1;whiteSpace=wrap;overflow=hidden;rounded=0;" vertex="1" parent="Yi4gAEJp29Y8d3OYS0KE-62">
          <mxGeometry x="160" y="70" width="180" height="120" as="geometry" />
        </mxCell>
        <mxCell id="Yi4gAEJp29Y8d3OYS0KE-67" value="Sign-Up Page" style="shape=swimlane;whiteSpace=wrap;fillColor=none;" vertex="1" parent="1">
          <mxGeometry x="20" y="450" width="400" height="330" as="geometry" />
        </mxCell>
        <mxCell id="Yi4gAEJp29Y8d3OYS0KE-68" value="Form: Name, Email, Password, Confirm" style="shape=rectangle;whiteSpace=wrap;fillColor=#ffffff;" vertex="1" parent="Yi4gAEJp29Y8d3OYS0KE-67">
          <mxGeometry y="60" width="400" height="180" as="geometry" />
        </mxCell>
        <mxCell id="Yi4gAEJp29Y8d3OYS0KE-69" value="Register" style="shape=rectangle;whiteSpace=wrap;fillColor=none;" vertex="1" parent="Yi4gAEJp29Y8d3OYS0KE-67">
          <mxGeometry x="100" y="260" width="180" height="40" as="geometry" />
        </mxCell>
        <mxCell id="Yi4gAEJp29Y8d3OYS0KE-70" style="endArrow=block;html=1;" edge="1" parent="1" source="Yi4gAEJp29Y8d3OYS0KE-51" target="Yi4gAEJp29Y8d3OYS0KE-56">
          <mxGeometry relative="1" as="geometry" />
        </mxCell>
        <mxCell id="Yi4gAEJp29Y8d3OYS0KE-71" style="endArrow=block;html=1;" edge="1" parent="1" source="Yi4gAEJp29Y8d3OYS0KE-56" target="Yi4gAEJp29Y8d3OYS0KE-62">
          <mxGeometry relative="1" as="geometry" />
        </mxCell>
        <mxCell id="Yi4gAEJp29Y8d3OYS0KE-72" style="endArrow=block;html=1;" edge="1" parent="1" source="Yi4gAEJp29Y8d3OYS0KE-51" target="Yi4gAEJp29Y8d3OYS0KE-67">
          <mxGeometry relative="1" as="geometry" />
        </mxCell>
      </root>
    </mxGraphModel>
  </diagram>
</mxfile>
